<svg width="322" height="70" viewBox="0 0 322 70" fill="none" xmlns="http://www.w3.org/2000/svg">
<circle cx="35" cy="35" r="35" fill="#306AFD"/>
<path d="M92.816 44.24C91.92 44.24 91.2 43.968 90.656 43.424C90.128 42.864 89.752 41.992 89.528 40.808L87.152 28.592C87.12 28.4 87.104 28.264 87.104 28.184C87.104 27.784 87.232 27.48 87.488 27.272C87.76 27.064 88.128 26.96 88.592 26.96C89.552 26.96 90.112 27.384 90.272 28.232L92.552 41.072C92.616 41.328 92.672 41.504 92.72 41.6C92.768 41.68 92.832 41.72 92.912 41.72C93.104 41.72 93.224 41.512 93.272 41.096L94.784 29.6C94.896 28.768 95.2 28.12 95.696 27.656C96.208 27.192 96.856 26.96 97.64 26.96C98.424 26.96 99.064 27.192 99.56 27.656C100.072 28.12 100.384 28.768 100.496 29.6L102.008 41.096C102.056 41.512 102.176 41.72 102.368 41.72C102.448 41.72 102.512 41.68 102.56 41.6C102.608 41.504 102.664 41.328 102.728 41.072L105.008 28.232C105.168 27.384 105.728 26.96 106.688 26.96C107.152 26.96 107.512 27.064 107.768 27.272C108.04 27.48 108.176 27.784 108.176 28.184C108.176 28.264 108.16 28.4 108.128 28.592L105.752 40.808C105.528 41.992 105.144 42.864 104.6 43.424C104.072 43.968 103.36 44.24 102.464 44.24C101.568 44.24 100.872 43.968 100.376 43.424C99.88 42.88 99.552 42.032 99.392 40.88L97.976 30.128C97.944 29.888 97.904 29.72 97.856 29.624C97.808 29.528 97.736 29.48 97.64 29.48C97.544 29.48 97.472 29.528 97.424 29.624C97.376 29.72 97.336 29.888 97.304 30.128L95.888 40.88C95.728 42.032 95.4 42.88 94.904 43.424C94.408 43.968 93.712 44.24 92.816 44.24ZM115.851 44.24C114.475 44.24 113.275 43.992 112.251 43.496C111.227 43 110.435 42.304 109.875 41.408C109.331 40.496 109.059 39.432 109.059 38.216C109.059 36.248 109.627 34.72 110.763 33.632C111.915 32.544 113.531 32 115.611 32C116.891 32 118.019 32.2 118.995 32.6C119.987 33 120.755 33.56 121.299 34.28C121.859 34.984 122.139 35.792 122.139 36.704C122.139 37.472 121.891 38.064 121.395 38.48C120.915 38.896 120.227 39.104 119.331 39.104H112.107C112.107 40 112.419 40.68 113.043 41.144C113.683 41.592 114.619 41.816 115.851 41.816C117.147 41.816 118.251 41.528 119.163 40.952C119.675 40.632 120.075 40.472 120.363 40.472C120.635 40.472 120.899 40.6 121.155 40.856C121.427 41.128 121.563 41.424 121.563 41.744C121.563 42.128 121.403 42.432 121.083 42.656C120.411 43.168 119.627 43.56 118.731 43.832C117.835 44.104 116.875 44.24 115.851 44.24ZM118.371 36.896C118.643 36.896 118.835 36.848 118.947 36.752C119.059 36.64 119.115 36.464 119.115 36.224C119.115 35.664 118.795 35.224 118.155 34.904C117.531 34.584 116.683 34.424 115.611 34.424C114.539 34.424 113.691 34.648 113.067 35.096C112.459 35.544 112.155 36.144 112.155 36.896H118.371ZM128.302 44.24C127.31 44.24 126.43 44.072 125.662 43.736C124.91 43.4 124.318 42.936 123.886 42.344C123.47 41.736 123.262 41.04 123.262 40.256C123.262 39.072 123.75 38.128 124.726 37.424C125.718 36.72 127.054 36.368 128.734 36.368C130.19 36.368 131.358 36.68 132.238 37.304V36.728C132.238 35.976 132.006 35.4 131.542 35C131.078 34.6 130.406 34.4 129.526 34.4C128.214 34.4 127.086 34.68 126.142 35.24C125.742 35.464 125.398 35.576 125.11 35.576C124.758 35.576 124.446 35.416 124.174 35.096C123.998 34.872 123.91 34.64 123.91 34.4C123.91 34 124.118 33.648 124.534 33.344C125.11 32.928 125.838 32.6 126.718 32.36C127.598 32.12 128.526 32 129.502 32C131.358 32 132.814 32.424 133.87 33.272C134.942 34.104 135.478 35.256 135.478 36.728V42.896C135.478 43.312 135.334 43.64 135.046 43.88C134.774 44.12 134.398 44.24 133.918 44.24C133.422 44.24 133.038 44.128 132.766 43.904C132.494 43.68 132.358 43.36 132.358 42.944V42.68C131.446 43.72 130.094 44.24 128.302 44.24ZM129.046 42.032C130.054 42.032 130.838 41.88 131.398 41.576C131.974 41.256 132.262 40.816 132.262 40.256C132.262 39.728 131.974 39.304 131.398 38.984C130.822 38.664 130.054 38.504 129.094 38.504C128.23 38.504 127.558 38.656 127.078 38.96C126.614 39.264 126.382 39.696 126.382 40.256C126.382 40.816 126.614 41.256 127.078 41.576C127.542 41.88 128.198 42.032 129.046 42.032ZM146.748 40.904C147.004 41.112 147.132 41.368 147.132 41.672C147.132 41.976 147.02 42.288 146.796 42.608C146.444 43.12 145.948 43.52 145.308 43.808C144.668 44.096 143.948 44.24 143.148 44.24C141.868 44.24 140.86 43.896 140.124 43.208C139.404 42.504 139.044 41.544 139.044 40.328V34.712H138.06C137.58 34.712 137.196 34.6 136.908 34.376C136.62 34.152 136.476 33.856 136.476 33.488C136.476 33.104 136.612 32.8 136.884 32.576C137.172 32.352 137.564 32.24 138.06 32.24H139.044V28.616C139.044 28.168 139.188 27.816 139.476 27.56C139.764 27.304 140.148 27.176 140.628 27.176C141.124 27.176 141.508 27.304 141.78 27.56C142.052 27.816 142.188 28.168 142.188 28.616V32.24H144.492C144.988 32.24 145.372 32.352 145.644 32.576C145.932 32.8 146.076 33.104 146.076 33.488C146.076 33.856 145.932 34.152 145.644 34.376C145.372 34.6 144.988 34.712 144.492 34.712H142.188V40.592C142.188 40.944 142.292 41.224 142.5 41.432C142.724 41.64 143.02 41.744 143.388 41.744C143.676 41.744 143.924 41.704 144.132 41.624C144.356 41.528 144.58 41.376 144.804 41.168C145.22 40.768 145.604 40.568 145.956 40.568C146.212 40.568 146.476 40.68 146.748 40.904ZM150.422 44.24C149.926 44.24 149.542 44.112 149.27 43.856C148.998 43.6 148.862 43.248 148.862 42.8V27.224C148.862 26.776 148.998 26.424 149.27 26.168C149.542 25.912 149.926 25.784 150.422 25.784C150.902 25.784 151.286 25.912 151.574 26.168C151.862 26.424 152.006 26.776 152.006 27.224V34.136C152.598 33.4 153.262 32.864 153.998 32.528C154.734 32.176 155.59 32 156.566 32C158.102 32 159.31 32.488 160.19 33.464C161.086 34.424 161.534 35.736 161.534 37.4V42.8C161.534 43.248 161.39 43.6 161.102 43.856C160.814 44.112 160.43 44.24 159.95 44.24C159.454 44.24 159.07 44.112 158.798 43.856C158.526 43.6 158.39 43.248 158.39 42.8V37.4C158.39 36.488 158.166 35.776 157.718 35.264C157.27 34.752 156.646 34.496 155.846 34.496C154.63 34.496 153.686 34.856 153.014 35.576C152.342 36.28 152.006 37.272 152.006 38.552V42.8C152.006 43.248 151.862 43.6 151.574 43.856C151.286 44.112 150.902 44.24 150.422 44.24ZM170.179 44.24C168.803 44.24 167.603 43.992 166.579 43.496C165.555 43 164.763 42.304 164.203 41.408C163.659 40.496 163.387 39.432 163.387 38.216C163.387 36.248 163.955 34.72 165.091 33.632C166.243 32.544 167.859 32 169.939 32C171.219 32 172.347 32.2 173.323 32.6C174.315 33 175.083 33.56 175.627 34.28C176.187 34.984 176.467 35.792 176.467 36.704C176.467 37.472 176.219 38.064 175.723 38.48C175.243 38.896 174.555 39.104 173.659 39.104H166.435C166.435 40 166.747 40.68 167.371 41.144C168.011 41.592 168.947 41.816 170.179 41.816C171.475 41.816 172.579 41.528 173.491 40.952C174.003 40.632 174.403 40.472 174.691 40.472C174.963 40.472 175.227 40.6 175.483 40.856C175.755 41.128 175.891 41.424 175.891 41.744C175.891 42.128 175.731 42.432 175.411 42.656C174.739 43.168 173.955 43.56 173.059 43.832C172.163 44.104 171.203 44.24 170.179 44.24ZM172.699 36.896C172.971 36.896 173.163 36.848 173.275 36.752C173.387 36.64 173.443 36.464 173.443 36.224C173.443 35.664 173.123 35.224 172.483 34.904C171.859 34.584 171.011 34.424 169.939 34.424C168.867 34.424 168.019 34.648 167.395 35.096C166.787 35.544 166.483 36.144 166.483 36.896H172.699ZM180 44.24C179.504 44.24 179.12 44.112 178.848 43.856C178.576 43.6 178.44 43.248 178.44 42.8V33.44C178.44 32.976 178.568 32.624 178.824 32.384C179.096 32.128 179.472 32 179.952 32C180.432 32 180.808 32.128 181.08 32.384C181.352 32.64 181.488 32.992 181.488 33.44V34.232C181.984 33.592 182.56 33.104 183.216 32.768C183.888 32.416 184.608 32.24 185.376 32.24H185.904C186.416 32.24 186.808 32.352 187.08 32.576C187.368 32.784 187.512 33.088 187.512 33.488C187.512 33.888 187.368 34.2 187.08 34.424C186.808 34.632 186.416 34.736 185.904 34.736H185.088C184.016 34.736 183.16 35.08 182.52 35.768C181.896 36.44 181.584 37.368 181.584 38.552V42.8C181.584 43.248 181.44 43.6 181.152 43.856C180.864 44.112 180.48 44.24 180 44.24ZM197.136 44.216C196.656 44.216 196.272 44.088 195.984 43.832C195.696 43.576 195.552 43.224 195.552 42.776V34.376C195.552 32.056 196.216 30.24 197.544 28.928C198.872 27.616 200.72 26.96 203.088 26.96C204.64 26.96 205.984 27.256 207.12 27.848C208.256 28.44 209.12 29.296 209.712 30.416C210.32 31.536 210.624 32.856 210.624 34.376V42.776C210.624 43.224 210.48 43.576 210.192 43.832C209.904 44.088 209.52 44.216 209.04 44.216C208.56 44.216 208.168 44.088 207.864 43.832C207.576 43.56 207.432 43.208 207.432 42.776V38.864H198.744V42.776C198.744 43.208 198.592 43.56 198.288 43.832C198 44.088 197.616 44.216 197.136 44.216ZM207.432 36.392V34.304C207.432 32.704 207.064 31.504 206.328 30.704C205.608 29.888 204.528 29.48 203.088 29.48C200.192 29.48 198.744 31.088 198.744 34.304V36.392H207.432ZM214.523 51.176C214.027 51.176 213.643 51.048 213.371 50.792C213.099 50.536 212.963 50.184 212.963 49.736V33.44C212.963 32.992 213.099 32.64 213.371 32.384C213.643 32.128 214.027 32 214.523 32C215.003 32 215.387 32.128 215.675 32.384C215.963 32.64 216.107 32.992 216.107 33.44V33.92C216.795 33.248 217.507 32.76 218.243 32.456C218.995 32.152 219.843 32 220.787 32C222.035 32 223.123 32.248 224.051 32.744C224.995 33.24 225.715 33.952 226.211 34.88C226.723 35.792 226.979 36.872 226.979 38.12C226.979 39.352 226.723 40.432 226.211 41.36C225.699 42.288 224.971 43 224.027 43.496C223.083 43.992 221.971 44.24 220.691 44.24C219.731 44.24 218.891 44.096 218.171 43.808C217.451 43.504 216.771 43.024 216.131 42.368L216.107 49.736C216.107 50.184 215.963 50.536 215.675 50.792C215.387 51.048 215.003 51.176 214.523 51.176ZM220.043 41.744C221.227 41.744 222.147 41.432 222.803 40.808C223.475 40.168 223.811 39.272 223.811 38.12C223.811 36.968 223.475 36.08 222.803 35.456C222.147 34.816 221.227 34.496 220.043 34.496C218.811 34.496 217.843 34.824 217.139 35.48C216.451 36.12 216.107 37 216.107 38.12C216.107 39.24 216.451 40.128 217.139 40.784C217.843 41.424 218.811 41.744 220.043 41.744ZM230.508 51.176C230.012 51.176 229.628 51.048 229.356 50.792C229.084 50.536 228.948 50.184 228.948 49.736V33.44C228.948 32.992 229.084 32.64 229.356 32.384C229.628 32.128 230.012 32 230.508 32C230.988 32 231.372 32.128 231.66 32.384C231.948 32.64 232.092 32.992 232.092 33.44V33.92C232.78 33.248 233.492 32.76 234.228 32.456C234.98 32.152 235.828 32 236.772 32C238.02 32 239.108 32.248 240.036 32.744C240.98 33.24 241.7 33.952 242.196 34.88C242.708 35.792 242.964 36.872 242.964 38.12C242.964 39.352 242.708 40.432 242.196 41.36C241.684 42.288 240.956 43 240.012 43.496C239.068 43.992 237.956 44.24 236.676 44.24C235.716 44.24 234.876 44.096 234.156 43.808C233.436 43.504 232.756 43.024 232.116 42.368L232.092 49.736C232.092 50.184 231.948 50.536 231.66 50.792C231.372 51.048 230.988 51.176 230.508 51.176ZM236.028 41.744C237.212 41.744 238.132 41.432 238.788 40.808C239.46 40.168 239.796 39.272 239.796 38.12C239.796 36.968 239.46 36.08 238.788 35.456C238.132 34.816 237.212 34.496 236.028 34.496C234.796 34.496 233.828 34.824 233.124 35.48C232.436 36.12 232.092 37 232.092 38.12C232.092 39.24 232.436 40.128 233.124 40.784C233.828 41.424 234.796 41.744 236.028 41.744Z" fill="#041027"/>
<path d="M43.4517 46.6667C45.9083 46.685 48.2733 45.7684 50.0883 44.1184C56.0833 38.875 52.875 28.3517 44.9733 27.3617C42.15 10.2384 17.455 16.7284 23.3033 33.0267" stroke="white" stroke-width="2" stroke-miterlimit="10" stroke-linecap="round" stroke-linejoin="round"/>
<path d="M26.3467 33.7783C25.375 33.2833 24.2933 33.0267 23.2117 33.045C14.6683 33.65 14.6867 46.08 23.2117 46.685M42.0033 28.1317C42.9567 27.655 43.9833 27.3983 45.0467 27.38M29.9217 45.1267H31.755V49.3983C31.755 50.0217 32.5433 50.3333 32.9467 49.8567L37.4383 44.7417C37.9883 44.1183 37.75 43.605 36.925 43.605H35.0917V39.3333C35.0917 38.71 34.3033 38.3983 33.9 38.875L29.4083 43.99C28.8583 44.6133 29.0967 45.1267 29.9217 45.1267Z" stroke="white" stroke-width="2" stroke-miterlimit="10" stroke-linecap="round" stroke-linejoin="round"/>
</svg>
