<svg width="26" height="26" viewBox="0 0 26 26" fill="none" xmlns="http://www.w3.org/2000/svg">
<path d="M22.75 12.4584C22.75 18.1459 18.1458 22.75 12.4583 22.75C6.77082 22.75 2.16666 18.1459 2.16666 12.4584C2.16666 6.77085 6.77082 2.16669 12.4583 2.16669M23.8333 23.8334L21.6667 21.6667" stroke="#041027" stroke-width="1.5" stroke-linecap="round" stroke-linejoin="round"/>
<path d="M15.7083 6.64082C15.3292 5.44915 15.7733 3.96499 17.03 3.56415C17.6908 3.34749 18.5033 3.53165 18.9692 4.17082C19.4025 3.50999 20.2475 3.35832 20.8975 3.56415C22.1542 3.96499 22.5983 5.44915 22.2192 6.64082C21.6233 8.53665 19.5433 9.52249 18.9692 9.52249C18.3842 9.52249 16.3258 8.55832 15.7083 6.64082Z" stroke="#041027" stroke-width="1.5" stroke-linecap="round" stroke-linejoin="round"/>
</svg>
